# xmcd
#
# Track frame offsets: 
#        150
#        18151
#        38984
#        55136
#        76688
#        95637
#        125209
#        143198
#        173651
#        191135
#        210105
#
# Disc length: 3232 seconds
#
# Revision: 2
# Processed by: cddbd v1.5.1PL0 Copyright (c) Steve Scherf et al.
# Submitted via: ExactAudioCopy v0.95a5
#
DISCID=8e0c9e0b
DTITLE=Various Artist - DTS 纯音乐系列之三
DYEAR=1900
DGENRE=Pop
TTITLE0=竹楼情歌（葫芦丝）
TTITLE1=02 草原之夜（民乐）
TTITLE2=03 爱我中华（女声民歌）
TTITLE3=04 山丹丹花开红艳艳（扬琴）
TTITLE4=05 同一首歌（弦乐二重奏）
TTITLE5=06 霸王别姬（男声流行）
TTITLE6=07 花好月圆（唢呐）
TTITLE7=08 蕉窗夜雨（古筝）
TTITLE8=09 夜来香（电子琴）
TTITLE9=10 月映竹楼（云南音乐）
TTITLE10=11 迪士高（迪士高
EXTD=
EXTT0=
EXTT1=
EXTT2=
EXTT3=
EXTT4=
EXTT5=
EXTT6=
EXTT7=
EXTT8=
EXTT9=
EXTT10=
PLAYORDER=
